<svg xmlns="http://www.w3.org/2000/svg" width="240" height="34" viewBox="0 0 240 34">
  <defs>
    <style>
      .cls-1 {
        fill-rule: evenodd;
      }
    </style>
  </defs>
  <path id="Mind_Body_Soul" data-name="Mind, Body &amp; Soul" class="cls-1" d="M30.7,25.874V25.706c-2.592,0-2.592-1.344-2.592-4.152V13.393c0-2.9,0-4.152,2.592-4.152V9.072H23.166L18.941,19.8l-4.2-10.729H6.2V9.24c2.856,0,3.312,1.08,3.312,3.744v5.3c0,3.408-.072,7.417-3.888,7.417v0.168h7.9V25.706c-3.72,0-3.744-3.816-3.744-6.961V10.153L16.517,26.69,23.166,9.769V21.554c0,3.24-.024,4.152-2.352,4.152v0.168H30.7Zm8.631,0V25.706c-1.872,0-2.088-.48-2.088-3.048V13.1L30.38,14.953l0.048,0.168c2.04-.48,2.376.168,2.376,1.776v5.761c0,2.568-.216,3.048-2.088,3.048v0.168h8.617ZM35.012,6.912A2.592,2.592,0,1,0,37.6,9.48,2.561,2.561,0,0,0,35.012,6.912ZM56.4,25.874V25.706c-1.872,0-2.088-.48-2.088-3.048V16.633c0-2.448-.84-3.528-2.784-3.528-1.464,0-2.928.648-5.3,2.592L46.293,13.1,39.38,14.953l0.048,0.168c2.04-.48,2.376.168,2.376,1.776v5.761c0,2.568-.216,3.048-2.088,3.048v0.168h7.849V25.706c-1.3,0-1.32-1.056-1.32-2.568V15.913a3.519,3.519,0,0,1,2.112-.936c1.392,0,1.512,1.3,1.512,2.28v5.88c0,1.92-.024,2.568-1.3,2.568v0.168H56.4Zm7.5-12.769a6.952,6.952,0,0,0-6.913,7.225c0,3.408,2.208,5.712,4.753,5.712,1.584,0,2.784-.912,3.888-2.616-0.072,1.68.36,2.616,2.136,2.616A16.558,16.558,0,0,0,72.1,25.13l-0.024-.168c-1.944.384-2.088-.528-2.088-2.136V6.912L63.125,8.76l0.048,0.168c2.04-.48,2.352.168,2.376,1.776l0.024,2.688A5.358,5.358,0,0,0,63.893,13.1Zm1.656,10.081c-0.6.912-1.128,1.656-1.944,1.656-1.92,0-1.92-4.056-1.92-5.232,0-4.44.7-6.313,2.376-6.313,1.392,0,1.488.768,1.488,2.712v7.177Zm8.567,6.192c1.9-1.464,3.144-3.528,3.144-5.232a2.546,2.546,0,0,0-2.472-2.712,2.375,2.375,0,0,0-2.208,3.048c2.448,0.984,3.264,2.952,1.392,4.776Zm9.5-20.306V9.24c2.592,0,2.592,1.248,2.592,4.152v8.161c0,2.808,0,4.152-2.592,4.152v0.168h9.673c4.776,0,7.705-1.8,7.705-4.8,0-3.816-5.377-4.44-7.921-4.464V16.561c2.4-.072,6.817-0.432,6.817-3.6,0-3.864-5.256-3.888-9.433-3.888H83.62Zm7.537,7.441V9.24h0.624c2.592,0,3.288,1.3,3.288,3.576,0,2.544-.744,3.7-3.24,3.7H91.157Zm0,0.192h0.792c3.192,0,3.768,1.656,3.768,4.368,0,3.144-.888,4.632-2.952,4.632-1.536,0-1.608-.528-1.608-2.808V16.705Zm17.9-3.6c-3.913,0-6.961,2.736-6.961,6.481,0,3.72,3.048,6.456,6.961,6.456,3.936,0,6.984-2.736,6.984-6.456C116.045,15.841,113,13.1,109.061,13.1Zm0,12.745c-2.089,0-2.089-3.456-2.089-6.265,0-2.736,0-6.289,2.089-6.289,2.112,0,2.112,3.552,2.112,6.289C111.173,22.394,111.173,25.85,109.061,25.85ZM123.893,13.1a6.952,6.952,0,0,0-6.913,7.225c0,3.408,2.208,5.712,4.752,5.712,1.585,0,2.785-.912,3.889-2.616-0.072,1.68.36,2.616,2.136,2.616a16.557,16.557,0,0,0,4.344-.912l-0.024-.168c-1.944.384-2.088-.528-2.088-2.136V6.912L123.125,8.76l0.048,0.168c2.04-.48,2.352.168,2.376,1.776l0.024,2.688A5.356,5.356,0,0,0,123.893,13.1Zm1.656,10.081c-0.6.912-1.128,1.656-1.944,1.656-1.921,0-1.921-4.056-1.921-5.232,0-4.44.7-6.313,2.377-6.313,1.392,0,1.488.768,1.488,2.712v7.177Zm16.728-1.9-2.232-4.8c-0.7-1.488-1.2-3.048.7-3.048V13.273h-8.953v0.168c1.536,0,2.184.84,3.1,2.688l4.993,10.1c-1.248,2.88-2.737,4.368-3.7,4.368a0.776,0.776,0,0,1-.84-0.84,1.5,1.5,0,0,1,1.1-1.392,2.2,2.2,0,0,0-2.352-2.208,2.259,2.259,0,0,0-2.472,2.28,2.973,2.973,0,0,0,3.264,2.832c2.809,0,4.177-2.712,5.137-4.728l3.96-8.185c1.584-3.264,2.52-4.921,4.2-4.921V13.273h-5.4v0.168c2.736,0,1.848,2.952.912,4.921Zm16.431-8.521a9.884,9.884,0,0,0,.7,3.384c-3.625.48-5.425,2.76-5.425,5.16,0,2.5,1.9,4.728,5.521,4.728a7.815,7.815,0,0,0,5.28-2.208,7.977,7.977,0,0,0,4.9,2.208c1.609,0,3.193-1.2,4.537-3.7l-0.12-.072a1.869,1.869,0,0,1-1.488.792c-1.969,0-4.3-1.824-6.265-4.176-0.048-2.16,1.056-5.016,2.64-5.016a1.094,1.094,0,0,1,1.128,1.248,1.7,1.7,0,0,1-1.2,1.776,2.018,2.018,0,0,0,2.137,2.016,2.745,2.745,0,0,0,2.616-2.88A3.057,3.057,0,0,0,170.4,13.1c-3,0-4.152,2.76-4.272,5.521a23.289,23.289,0,0,1-2.5-3.84c2.208-.912,3.48-2.5,3.48-3.792,0-1.152-1.032-2.088-3.312-2.088C161.373,8.9,158.708,10.249,158.708,12.769Zm0.745,3.48a20.057,20.057,0,0,0,5.256,7.513c-3.216,1.728-6.5-1.488-6.5-4.872A2.9,2.9,0,0,1,159.453,16.249Zm6.024-5.064a4.172,4.172,0,0,1-1.9,3.528,10.063,10.063,0,0,1-1.248-4.1,1.431,1.431,0,0,1,1.44-1.512C164.949,9.1,165.477,10.057,165.477,11.185Zm27.08-2.232-1.824.48A17.359,17.359,0,0,0,186.8,8.9c-3.481,0-6.817,1.872-6.817,5.04,0,5.808,10.585,5.352,10.585,9.289,0,1.608-1.608,2.592-3.936,2.592-4.417,0-6-3.96-6.385-6.769h-0.168l0.384,6.937,1.8-.48a17.732,17.732,0,0,0,4.153.528c4.176,0,7.728-2.04,7.728-5.424,0-5.976-10.465-5.16-10.465-9.073,0-1.488,1.416-2.424,3.361-2.424,3.744,0,5.28,3,5.664,5.712h0.168Zm9.5,4.152c-3.913,0-6.961,2.736-6.961,6.481,0,3.72,3.048,6.456,6.961,6.456,3.936,0,6.984-2.736,6.984-6.456C209.045,15.841,206,13.1,202.061,13.1Zm0,12.745c-2.089,0-2.089-3.456-2.089-6.265,0-2.736,0-6.289,2.089-6.289,2.112,0,2.112,3.552,2.112,6.289C204.173,22.394,204.173,25.85,202.061,25.85Zm17.328-2.616a3.518,3.518,0,0,1-2.112.936c-1.392,0-1.512-1.3-1.512-2.28V13.1l-6.745.912,0.024,0.168c2.208-.288,2.28.528,2.28,2.136v6.192c0,2.448.84,3.528,2.784,3.528,1.465,0,2.977-.6,5.353-2.616-0.072,1.68.312,2.616,2.088,2.616a17,17,0,0,0,4.392-.912l-0.024-.168c-1.944.384-2.088-.528-2.088-2.136V13.1l-6.264.84,0.024,0.168c1.776-.264,1.8.6,1.8,2.208v6.913Zm14.944,2.64V25.706c-1.872,0-2.088-.48-2.088-3.048V6.912L225.38,8.76l0.048,0.168c2.04-.48,2.376.168,2.376,1.776V22.658c0,2.568-.216,3.048-2.088,3.048v0.168h8.617Z"/>
</svg>
